#N canvas 222 185 302 647 10;
#X text 79 56 Created by Tibor Simon;
#X text 104 71 tiborsimon.io;
#X text 132 95 v1.0;
#X text 62 401 You can do this outside of PD..;
#X text 63 425 OSX: Soundflower;
#X text 63 413 Windows: VB-Audio Virtual Cable;
#X text 63 521 left and right side.;
#X text 65 553 with the Test switch.;
#X text 45 444 2 In PD: Media->Audio Settings...;
#X text 44 389 1 Redirect your system sound.;
#X text 62 457 Select your redirected system;
#X text 45 509 4 Use the slider to fade between;
#X text 45 541 5 Optionally: test your setup;
#X text 45 486 3 Turn on DSP.;
#X text 62 467 sound as input.;
#X text 123 31 L Fade R;
#X text 55 589 Copyright (c) 2016 Tibor Simon;
#X coords 0 -1 1 1 250 590 2 25 25;
