#N canvas 196 145 302 638 10;
#X obj 25 23 l-fade-r-doc;
#X obj 75 193 l-fade-r-core;
#X obj 95 162 tgl 15 0 empty empty Test 17 7 0 10 -262144 -1 -1 0 1
;
#X obj 131 143 tgl 15 0 empty empty DSP_on/off 17 7 0 10 -262144 -1
-1 0 1;
#X obj 158 163 tgl 15 0 empty empty Bypass 17 7 0 10 -262144 -1 -1
0 1;
#X connect 2 0 1 0;
#X connect 3 0 1 1;
#X connect 4 0 1 2;
