#N canvas 145 141 841 639 10;
#X obj 69 219 cnv 15 150 170 empty empty empty 20 12 0 14 -191407 -66577
0;
#X obj 533 546 dac~;
#X obj 80 236 hsl 128 30 0 1 0 1 fade empty Fader -2 -8 0 10 -228856
-258113 -45076 6300 0;
#X obj 459 427 *~;
#X obj 622 427 *~;
#X obj 540 473 +~;
#X msg 113 151 \; pd dsp \$1;
#X obj 315 390 line~;
#X msg 735 296 \$1 10;
#X obj 735 316 line~;
#X obj 77 284 vsl 133 94 0 0.8 0 1 volume empty Volume 0 -9 0 10 -228856
-258113 -1 3500 0;
#X msg 718 401 \$1 10;
#X obj 718 421 line~;
#X obj 540 507 *~;
#X floatatom 718 384 5 0 0 0 - - -;
#X floatatom 314 353 5 0 0 0 - - -;
#X msg 314 370 \$1 10;
#X floatatom 735 279 5 0 0 0 - - -;
#X obj 117 129 inlet;
#X obj 718 364 r volume;
#X obj 314 313 -;
#X obj 57 170 tgl 15 0 empty empty empty 17 7 0 10 -262144 -1 -1 0
1;
#X obj 534 252 adc~;
#X msg 347 313 1;
#X obj 314 333 * -1;
#X obj 72 185 s test_toggle;
#X obj 309 70 osc~ 440;
#X obj 324 130 line~;
#X obj 309 150 *~;
#X msg 324 110 \$1 100;
#X obj 334 190 line~;
#X obj 324 90 r test_toggle;
#X obj 334 150 r test_toggle;
#X obj 717 120 line~;
#X obj 702 140 *~;
#X msg 717 100 \$1 100;
#X obj 702 197 *~;
#X obj 727 180 line~;
#X obj 717 80 r test_toggle;
#X obj 727 140 r test_toggle;
#X obj 702 60 osc~ 880;
#X text 80 244 L;
#X text 196 244 R;
#X msg 334 170 0.2;
#X msg 727 160 0.2;
#X obj 19 32 l-fade-r-doc;
#X obj 735 259 r fade;
#X obj 314 288 r fade;
#X obj 76 163 inlet;
#X obj 194 184 s bypass;
#X obj 178 169 tgl 15 0 empty empty empty 17 7 0 10 -262144 -1 -1 0
1;
#X obj 577 506 *~;
#X obj 504 508 *~;
#X obj 518 69 r bypass;
#X obj 504 322 *~;
#X obj 592 322 *~;
#X obj 309 207 *~;
#X obj 474 322 *~;
#X obj 622 322 *~;
#X obj 443 222 line~;
#X obj 492 222 line~;
#X obj 575 222 line~;
#X obj 615 222 line~;
#X msg 443 201 \$1 50;
#X msg 495 199 \$1 50;
#X msg 616 198 \$1 50;
#X msg 575 198 \$1 50;
#X msg 618 113 0;
#X floatatom 442 179 5 0 0 0 - - -;
#X floatatom 493 179 5 0 0 0 - - -;
#X floatatom 577 177 5 0 0 0 - - -;
#X floatatom 619 178 5 0 0 0 - - -;
#X obj 618 150 ==;
#X msg 442 112 0;
#X obj 442 139 ==;
#X obj 429 69 loadbang;
#X obj 617 69 loadbang;
#X obj 283 264 loadbang;
#X msg 283 284 0.5;
#X obj 703 234 loadbang;
#X msg 703 254 0.5;
#X obj 98 135 tgl 15 0 empty empty empty 17 7 0 10 -262144 -1 -1 0
1;
#X obj 197 163 inlet;
#X connect 3 0 5 0;
#X connect 4 0 5 1;
#X connect 5 0 13 0;
#X connect 7 0 3 0;
#X connect 8 0 9 0;
#X connect 9 0 4 1;
#X connect 11 0 12 0;
#X connect 12 0 13 1;
#X connect 12 0 52 1;
#X connect 12 0 51 0;
#X connect 13 0 1 0;
#X connect 13 0 1 1;
#X connect 14 0 11 0;
#X connect 15 0 16 0;
#X connect 16 0 7 0;
#X connect 17 0 8 0;
#X connect 18 0 6 0;
#X connect 18 0 81 0;
#X connect 19 0 14 0;
#X connect 20 0 24 0;
#X connect 21 0 25 0;
#X connect 22 0 54 1;
#X connect 22 0 57 1;
#X connect 22 1 55 0;
#X connect 22 1 58 0;
#X connect 23 0 20 1;
#X connect 24 0 15 0;
#X connect 26 0 28 0;
#X connect 27 0 28 1;
#X connect 28 0 56 0;
#X connect 29 0 27 0;
#X connect 30 0 56 1;
#X connect 31 0 29 0;
#X connect 32 0 43 0;
#X connect 33 0 34 1;
#X connect 34 0 36 0;
#X connect 35 0 33 0;
#X connect 36 0 58 0;
#X connect 37 0 36 1;
#X connect 38 0 35 0;
#X connect 39 0 44 0;
#X connect 40 0 34 0;
#X connect 43 0 30 0;
#X connect 44 0 37 0;
#X connect 46 0 17 0;
#X connect 47 0 20 0;
#X connect 47 0 23 0;
#X connect 48 0 25 0;
#X connect 48 0 21 0;
#X connect 50 0 49 0;
#X connect 51 0 1 1;
#X connect 52 0 1 0;
#X connect 53 0 69 0;
#X connect 53 0 70 0;
#X connect 53 0 74 1;
#X connect 53 0 73 0;
#X connect 53 0 72 1;
#X connect 53 0 67 0;
#X connect 54 0 52 0;
#X connect 55 0 51 1;
#X connect 56 0 57 1;
#X connect 57 0 3 1;
#X connect 58 0 4 0;
#X connect 59 0 57 0;
#X connect 60 0 54 0;
#X connect 61 0 55 1;
#X connect 62 0 58 1;
#X connect 63 0 59 0;
#X connect 64 0 60 0;
#X connect 65 0 62 0;
#X connect 66 0 61 0;
#X connect 67 0 72 0;
#X connect 68 0 63 0;
#X connect 69 0 64 0;
#X connect 70 0 66 0;
#X connect 71 0 65 0;
#X connect 72 0 71 0;
#X connect 73 0 74 0;
#X connect 74 0 68 0;
#X connect 75 0 73 0;
#X connect 76 0 67 0;
#X connect 77 0 78 0;
#X connect 78 0 16 0;
#X connect 79 0 80 0;
#X connect 80 0 9 0;
#X connect 81 0 6 0;
#X connect 82 0 50 0;
#X connect 82 0 49 0;
#X coords 0 -1 1 1 150 170 1 69 219;
