#N canvas 276 166 512 618 10;
#X obj 63 184 cnv 15 150 170 empty empty empty 20 12 0 14 -191407 -66577
0;
#X obj 278 454 dac~;
#X obj 74 201 hsl 128 30 0 1 0 1 fade empty Fader -2 -8 0 10 -228856
-258113 -45076 6300 0;
#X obj 278 377 *~;
#X obj 318 376 *~;
#X obj 278 403 +~;
#X msg 42 141 \; pd dsp \$1;
#X obj 42 109 inlet;
#X obj 293 327 line~;
#X msg 333 307 \$1 10;
#X obj 333 327 line~;
#X obj 71 249 vsl 133 94 0 0.8 0 1 volume empty Volume 0 -9 0 10 -228856
-258113 -1 3600 0;
#X msg 351 425 \$1 10;
#X obj 351 445 line~;
#X obj 278 427 *~;
#X floatatom 351 408 5 0 0 0 - - -, f 5;
#X floatatom 292 290 5 0 0 0 - - -, f 5;
#X msg 292 307 \$1 10;
#X floatatom 333 290 5 0 0 0 - - -, f 5;
#X obj 171 113 inlet;
#X obj 27 126 tgl 15 0 empty empty empty 17 7 0 10 -262144 -1 -1 1
1;
#X obj 351 388 r volume;
#X obj 292 250 -;
#X obj 156 130 tgl 15 0 empty empty empty 17 7 0 10 -262144 -1 -1 0
1;
#X obj 301 347 adc~;
#X msg 333 250 1;
#X obj 292 270 * -1;
#X obj 171 145 s test_toggle;
#X obj 282 15 osc~ 440;
#X obj 297 75 line~;
#X obj 282 95 *~;
#X msg 297 55 \$1 100;
#X obj 282 152 *~;
#X obj 307 135 line~;
#X obj 297 35 r test_toggle;
#X obj 307 95 r test_toggle;
#X obj 407 75 line~;
#X obj 392 95 *~;
#X msg 407 55 \$1 100;
#X obj 392 152 *~;
#X obj 417 135 line~;
#X obj 407 35 r test_toggle;
#X obj 417 95 r test_toggle;
#X obj 392 15 osc~ 880;
#X text 74 209 L;
#X text 190 209 R;
#X msg 307 115 0.2;
#X msg 417 115 0.2;
#X obj 13 15 l-fade-r-doc;
#X obj 392 172 s~ osc_r;
#X obj 333 270 r fade;
#X obj 292 229 r fade;
#X obj 282 172 s~ osc_l;
#X obj 351 347 r~ osc_l;
#X obj 351 367 r~ osc_r;
#X connect 3 0 5 0;
#X connect 4 0 5 1;
#X connect 5 0 14 0;
#X connect 7 0 6 0;
#X connect 7 0 20 0;
#X connect 8 0 3 1;
#X connect 9 0 10 0;
#X connect 10 0 4 1;
#X connect 12 0 13 0;
#X connect 13 0 14 1;
#X connect 14 0 1 0;
#X connect 14 0 1 1;
#X connect 15 0 12 0;
#X connect 16 0 17 0;
#X connect 17 0 8 0;
#X connect 18 0 9 0;
#X connect 19 0 23 0;
#X connect 19 0 27 0;
#X connect 20 0 6 0;
#X connect 21 0 15 0;
#X connect 22 0 26 0;
#X connect 23 0 27 0;
#X connect 24 0 3 0;
#X connect 24 1 4 0;
#X connect 25 0 22 1;
#X connect 26 0 16 0;
#X connect 28 0 30 0;
#X connect 29 0 30 1;
#X connect 30 0 32 0;
#X connect 31 0 29 0;
#X connect 32 0 52 0;
#X connect 33 0 32 1;
#X connect 34 0 31 0;
#X connect 35 0 46 0;
#X connect 36 0 37 1;
#X connect 37 0 39 0;
#X connect 38 0 36 0;
#X connect 39 0 49 0;
#X connect 40 0 39 1;
#X connect 41 0 38 0;
#X connect 42 0 47 0;
#X connect 43 0 37 0;
#X connect 46 0 33 0;
#X connect 47 0 40 0;
#X connect 50 0 18 0;
#X connect 51 0 22 0;
#X connect 51 0 25 0;
#X connect 53 0 3 0;
#X connect 54 0 4 0;
#X coords 0 -1 1 1 150 170 1 63 184;
